<svg width="60" height="60" viewBox="0 0 60 60" xmlns="http://www.w3.org/2000/svg">
    <g fill="none" fill-rule="evenodd">
        <g fill="rgba(5, 217, 232, 0.05)" fill-opacity="1">
            <path d="M36 34v2h-2v-2h2zm4 8v2h-2v-2h2zm8 8v2h-2v-2h2zm-12 12v2h-2v-2h2zm-8-8v2h-2v-2h2zm-8-8v2h-2v-2h2zm-8-8v2h-2v-2h2zm-8-8v2h-2v-2h2zm8-8v2h-2v-2h2zm8 8v2h-2v-2h2zm8 8v2h-2v-2h2zm8 8v2h-2v-2h2zm12-12v2h-2v-2h2zm-8-8v2h-2v-2h2zm-8-8v2h-2v-2h2zm-8-8v2h-2v-2h2zm-8-8v2h-2v-2h2zm-8-8v2h-2v-2h2zm8-8v2h-2v-2h2zm8 8v2h-2v-2h2zm8 8v2h-2v-2h2zm8 8v2h-2v-2h2zm12-12v2h-2v-2h2zm-8-8v2h-2v-2h2zm-8-8v2h-2v-2h2zm-8-8v2h-2v-2h2zm-8-8v2h-2v-2h2zm-8-8v2h-2v-2h2zm8-8v2h-2v-2h2zm8 8v2h-2v-2h2zm8 8v2h-2v-2h2zm8 8v2h-2v-2h2zM24 6v2h-2V6h2zm4 8v2h-2v-2h2zm8 8v2h-2v-2h2zm8 8v2h-2v-2h2zm12 12v2h-2v-2h2zm-8-8v2h-2v-2h2zm-8-8v2h-2v-2h2zm-8-8v2h-2v-2h2zm-8-8v2h-2v-2h2zm-8-8v2h-2v-2h2zm8-8v2h-2v-2h2zm8 8v2h-2v-2h2zm8 8v2h-2v-2h2zm8 8v2h-2v-2h2zm12-12v2h-2v-2h2zm-8-8v2h-2v-2h2zm-8-8v2h-2v-2h2zm-8-8v2h-2v-2h2zm-8-8v2h-2v-2h2zm-8-8v2h-2v-2h2zm8-8v2h-2v-2h2zm8 8v2h-2v-2h2zm8 8v2h-2v-2h2zm8 8v2h-2v-2h2zm12-12v2h-2v-2h2zm-8-8v2h-2v-2h2zm-8-8v2h-2v-2h2zm-8-8v2h-2v-2h2zm-8-8v2h-2v-2h2zm-8-8v2h-2v-2h2zm8-8v2h-2v-2h2zm8 8v2h-2v-2h2zm8 8v2h-2v-2h2zm8 8v2h-2v-2h2z"/>
        </g>
    </g>
</svg>
